<?xml version="1.0" encoding="UTF-8"?> <svg xmlns="http://www.w3.org/2000/svg" id="b" viewBox="0 0 497.41 522.28"><g id="c"><path d="M177.88,434.03h-77.48c-.13-2.11-.35-4.05-.35-5.98.03-12.67.04-25.33.17-38,.22-20.43-6.46-38.51-18.39-54.87-10.59-14.52-20.79-29.3-33.41-42.26-11.71-12.03-15.51-27.41-17.44-43.65-4.13-34.76-3.13-69.48-.23-104.23.46-5.47,1.14-10.96,1.15-16.44.04-15.72,5.82-29.24,15.5-41.25,5.11-6.34,10.94-12.11,15.91-18.56,9.84-12.78,19.21-25.92,28.97-38.76,6.14-8.07,12.48-16.01,19.06-23.74,3.82-4.49,8.83-7.46,14.99-5.56,4.66,1.44,8.32,9,6.85,15.83-1.37,6.38-3.38,13.05-6.85,18.47-10.5,16.39-21.04,32.89-33.08,48.14-16.45,20.84-24.89,43.44-23.07,70.23,1.27,18.75.67,37.63,1.02,56.45.13,7.16.59,14.31.9,21.46.28,6.47,4.13,9.98,10.67,9.76,10.74-.36,17.88-6.56,18.16-17.26.3-11.8-.61-23.62-.87-35.44-.49-22.21.74-44.26,5.81-66,1.18-5.07,4.07-8.22,8.68-10.12,7.98-3.3,12-1.49,14.78,6.68,4.79,14.06,4.05,28.6,3.58,43.07-.53,16.54.51,32.94,3.48,49.23,1.5,8.24,5.16,15.23,10.1,21.97,7.66,10.44,15.57,20.92,21.51,32.35,9.3,17.9,11.91,37.85,11.95,57.7.07,30.97-1.33,61.94-2.06,92.91-.14,5.79-.02,11.59-.02,17.84Z" fill="#0e78bd" stroke-width="0"></path><path d="M313.8,434.25c0-11.67.27-22.79-.06-33.89-.52-17.48-1.51-34.94-2.15-52.41-.84-22.9.76-45.57,6.61-67.84,3.86-14.67,11.05-27.95,21.09-38.71,15.65-16.79,18.64-37.03,19.58-58.15.66-14.79-.41-29.67.36-44.45.41-7.83,3.01-15.56,4.78-23.3.79-3.49,3.4-4.56,6.8-4.54,8.01.04,13.59,4.35,15.39,12.12,6.85,29.54,6.65,59.44,4.6,89.45-.32,4.61-.16,9.34.51,13.91,1.38,9.35,10.07,15.64,19.49,14.6,6.17-.68,9-3.75,9.13-10.3.44-22.64.84-45.28,1.18-67.93.14-9.14.12-18.29.09-27.43-.04-15.64-6.38-28.99-15.11-41.5-13.62-19.52-27.38-38.95-40.49-58.82-3.45-5.23-4.76-11.89-6.94-17.94-.38-1.05-.29-2.32-.21-3.46.42-5.38,1.91-10.66,7.15-12.85,5.33-2.23,10.25.48,13.89,4.44,5.62,6.12,11.49,12.18,16.05,19.07,13.53,20.45,28.17,39.93,44.9,57.92,8.77,9.42,15.78,20.37,18.14,33.37,1.36,7.51,2.01,15.2,2.27,22.84.94,27.94,2.3,55.89,2.04,83.83-.14,15.04-2.16,30.3-5.45,45-1.87,8.37-6.85,16.75-12.44,23.45-11.41,13.68-22.53,27.5-33.08,41.87-13.17,17.94-20.72,37.37-20.26,59.76.24,11.82.08,23.65.41,35.47.13,4.68-.81,6.67-6.24,6.58-21.99-.36-43.98-.15-65.97-.15-1.79,0-3.57,0-6.05,0Z" fill="#0e78bd" stroke-width="0"></path><path d="M202.18,221.24h-35.37V43.19h57.43c7.1,35,14.18,69.85,21.25,104.7.33.05.66.1.99.15,1.16-5.34,2.37-10.68,3.46-16.03,5.73-28.2,11.39-56.42,17.25-84.59.34-1.66,2.2-4.28,3.39-4.3,17.97-.28,35.95-.19,54.36-.19v178.22h-34.9V90.98c-.39-.05-.78-.1-1.17-.14-1.52,7.23-3.08,14.46-4.56,21.7-7.09,34.88-14.19,69.76-21.16,104.67-.64,3.22-1.86,4.45-5.21,4.36-7.99-.22-16-.2-23.99,0-3.31.08-4.53-1.05-5.19-4.36-8.15-40.78-16.47-81.53-24.76-122.28-.32-1.57-.77-3.11-1.82-4.57v130.9Z" fill="#0e78bd" stroke-width="0"></path><path d="M0,458.21h25.6l9.87,38.33,9.8-38.33h25.58v62.99h-15.94v-48.04l-12.28,48.04h-14.43l-12.26-48.04v48.04H0v-62.99Z" fill="#0e78bd" stroke-width="0"></path><path d="M122,510.81h-22.1l-3.07,10.4h-19.87l23.68-62.99h21.23l23.67,62.99h-20.38l-3.15-10.4ZM117.96,497.19l-6.95-22.64-6.88,22.64h13.83Z" fill="#0e78bd" stroke-width="0"></path><path d="M151.85,458.21h18.18l23.72,34.85v-34.85h18.35v62.99h-18.35l-23.59-34.59v34.59h-18.3v-62.99Z" fill="#0e78bd" stroke-width="0"></path><path d="M221.63,500.37l18.52-1.16c.4,3.01,1.22,5.3,2.45,6.88,2,2.55,4.87,3.82,8.59,3.82,2.78,0,4.92-.65,6.42-1.96,1.5-1.3,2.26-2.81,2.26-4.53s-.72-3.09-2.15-4.38c-1.43-1.29-4.76-2.51-9.97-3.65-8.54-1.92-14.62-4.47-18.26-7.65-3.67-3.18-5.5-7.23-5.5-12.16,0-3.24.94-6.29,2.81-9.17,1.88-2.88,4.7-5.14,8.46-6.79,3.77-1.65,8.93-2.47,15.49-2.47,8.05,0,14.19,1.5,18.41,4.49,4.23,2.99,6.74,7.76,7.54,14.29l-18.35,1.07c-.49-2.84-1.51-4.9-3.07-6.19-1.56-1.29-3.72-1.93-6.47-1.93-2.26,0-3.97.48-5.11,1.44-1.15.96-1.72,2.13-1.72,3.5,0,1,.47,1.91,1.42,2.71.92.83,3.09,1.6,6.53,2.32,8.51,1.83,14.6,3.69,18.28,5.56,3.68,1.88,6.36,4.2,8.04,6.98,1.68,2.78,2.51,5.89,2.51,9.32,0,4.04-1.12,7.76-3.35,11.17-2.23,3.41-5.36,5.99-9.37,7.76-4.01,1.76-9.07,2.64-15.17,2.64-10.71,0-18.13-2.06-22.26-6.19s-6.46-9.37-7-15.73Z" fill="#0e78bd" stroke-width="0"></path><path d="M286.13,489.75c0-10.28,2.86-18.29,8.59-24.02,5.73-5.73,13.71-8.59,23.93-8.59s18.56,2.81,24.23,8.44,8.51,13.51,8.51,23.65c0,7.36-1.24,13.4-3.72,18.11-2.48,4.71-6.06,8.38-10.74,11s-10.52,3.93-17.51,3.93-12.98-1.13-17.64-3.39c-4.66-2.26-8.43-5.84-11.32-10.74-2.89-4.9-4.34-11.03-4.34-18.39ZM305.59,489.84c0,6.36,1.18,10.93,3.54,13.71,2.36,2.78,5.58,4.17,9.65,4.17s7.42-1.36,9.71-4.08c2.29-2.72,3.44-7.61,3.44-14.65,0-5.93-1.2-10.26-3.59-13-2.39-2.74-5.64-4.1-9.73-4.1s-7.08,1.39-9.45,4.17c-2.38,2.78-3.57,7.38-3.57,13.79Z" fill="#0e78bd" stroke-width="0"></path><path d="M402.88,458.21h19.42v37.53c0,3.72-.58,7.24-1.74,10.54-1.16,3.31-2.98,6.2-5.46,8.67-2.48,2.48-5.08,4.21-7.8,5.22-3.78,1.4-8.32,2.1-13.62,2.1-3.07,0-6.41-.21-10.03-.64-3.62-.43-6.65-1.28-9.09-2.56-2.44-1.27-4.66-3.08-6.68-5.43-2.02-2.35-3.4-4.77-4.15-7.26-1.2-4.01-1.8-7.56-1.8-10.65v-37.53h19.42v38.42c0,3.43.95,6.12,2.86,8.05,1.9,1.93,4.55,2.9,7.93,2.9s5.98-.95,7.88-2.85c1.9-1.9,2.86-4.6,2.86-8.09v-38.42Z" fill="#0e78bd" stroke-width="0"></path><path d="M435.45,521.21v-62.99h32.44c6.02,0,10.61.52,13.79,1.55s5.74,2.94,7.69,5.74c1.95,2.79,2.92,6.2,2.92,10.21,0,3.5-.75,6.51-2.24,9.04-1.49,2.54-3.54,4.59-6.15,6.17-1.66,1-3.94,1.83-6.84,2.49,2.32.77,4.01,1.55,5.07,2.32.72.52,1.75,1.62,3.11,3.31,1.36,1.69,2.27,3,2.73,3.91l9.43,18.25h-21.99l-10.4-19.25c-1.32-2.49-2.49-4.11-3.52-4.86-1.4-.97-2.99-1.46-4.77-1.46h-1.72v25.57h-19.55ZM455,483.74h8.21c.89,0,2.61-.29,5.16-.86,1.29-.26,2.34-.92,3.16-1.98.82-1.06,1.22-2.28,1.22-3.65,0-2.03-.64-3.59-1.93-4.68-1.29-1.09-3.71-1.63-7.26-1.63h-8.55v12.8Z" fill="#0e78bd" stroke-width="0"></path></g></svg> 